<svg xmlns="http://www.w3.org/2000/svg" xmlns:xlink="http://www.w3.org/1999/xlink" width="500" zoomAndPan="magnify" viewBox="0 0 375 149.999998" height="200" preserveAspectRatio="xMidYMid meet" version="1.0"><defs><g/></defs><g fill="#ffffff" fill-opacity="1"><g transform="translate(40.32721, 118.177767)"><g><path d="M 43.875 0 L 9.28125 0 L 44.015625 -95.84375 L 118.234375 -95.84375 C 129.316406 -95.84375 137.265625 -93.582031 142.078125 -89.0625 C 146.890625 -84.550781 147.578125 -77.535156 144.140625 -68.015625 L 138.984375 -54.1875 C 138.597656 -53.101562 138.082031 -52.117188 137.4375 -51.234375 C 136.800781 -50.347656 135.941406 -49.367188 134.859375 -48.296875 L 122.9375 -39.609375 C 119.40625 -36.953125 116.066406 -35.625 112.921875 -35.625 L 103.65625 -35.625 L 123.375 -0.890625 L 123.09375 0 L 80.390625 0 L 60.359375 -45.34375 Z M 70.234375 -72.734375 L 62.421875 -51.09375 L 95.703125 -51.09375 C 97.765625 -51.09375 99.773438 -51.828125 101.734375 -53.296875 C 103.703125 -54.765625 105.03125 -56.4375 105.71875 -58.3125 L 108.21875 -65.515625 C 109 -67.578125 108.921875 -69.296875 107.984375 -70.671875 C 107.054688 -72.046875 105.613281 -72.734375 103.65625 -72.734375 Z M 70.234375 -72.734375 "/></g></g></g><g fill="#ffffff" fill-opacity="1"><g transform="translate(172.827398, 118.177767)"><g><path d="M 147.09375 -95.84375 L 138.6875 -72.734375 L 78.46875 -72.734375 C 76.601562 -72.734375 74.691406 -72.046875 72.734375 -70.671875 C 70.773438 -69.296875 69.398438 -67.578125 68.609375 -65.515625 L 55.796875 -30.328125 C 55.109375 -28.367188 55.253906 -26.675781 56.234375 -25.25 C 57.222656 -23.820312 58.75 -23.109375 60.8125 -23.109375 L 120.734375 -23.109375 L 112.34375 0 L 39.171875 0 C 36.117188 0 33.90625 -0.734375 32.53125 -2.203125 L 19.4375 -12.8125 C 18.15625 -14.082031 17.390625 -15.675781 17.140625 -17.59375 C 16.898438 -19.507812 17.125 -21.5 17.8125 -23.5625 L 34.015625 -68.015625 C 37.453125 -77.535156 43.21875 -84.550781 51.3125 -89.0625 C 59.40625 -93.582031 68.953125 -95.84375 79.953125 -95.84375 Z M 147.09375 -95.84375 "/></g></g></g></svg>